{
  "asset": {
    "version": "2.0",
    "generator": "TurboSquid Stem Converter v1.0.0"
  },
  "accessors": [
    {
      "bufferView": 0,
      "byteOffset": 0,
      "componentType": 5126,
      "count": 1215,
      "type": "VEC3",
      "max": [
        102.42608642578125,
        52.4160041809082,
        79.40168762207031
      ],
      "min": [
        -98.44396209716797,
        -1.1920928955078125e-05,
        -77.26886749267578
      ]
    },
    {
      "bufferView": 1,
      "byteOffset": 0,
      "componentType": 5126,
      "count": 1215,
      "type": "VEC3",
      "max": [
        1.0,
        1.0,
        1.0
      ],
      "min": [
        -1.0,
        -1.0,
        -1.0
      ]
    },
    {
      "bufferView": 2,
      "byteOffset": 0,
      "componentType": 5126,
      "count": 1215,
      "type": "VEC2",
      "max": [
        0.9957230687141418,
        0.9960955381393433
      ],
      "min": [
        0.0029209256172180176,
        0.0064664483070373535
      ]
    },
    {
      "bufferView": 3,
      "byteOffset": 0,
      "componentType": 5126,
      "count": 1215,
      "type": "VEC2",
      "max": [
        0.9919649362564087,
        0.9919685125350952
      ],
      "min": [
        0.008031010627746582,
        0.010072708129882812
      ]
    },
    {
      "bufferView": 4,
      "byteOffset": 0,
      "componentType": 5123,
      "count": 2172,
      "type": "SCALAR",
      "max": [
        1214.0
      ],
      "min": [
        0.0
      ]
    }
  ],
  "buffers": [
    {
      "byteLength": 52944,
      "uri": "PalletPlywoodNew_GameReady.bin"
    }
  ],
  "bufferViews": [
    {
      "buffer": 0,
      "byteOffset": 0,
      "byteLength": 14580,
      "target": 34962
    },
    {
      "buffer": 0,
      "byteOffset": 14580,
      "byteLength": 14580,
      "target": 34962
    },
    {
      "buffer": 0,
      "byteOffset": 29160,
      "byteLength": 9720,
      "target": 34962
    },
    {
      "buffer": 0,
      "byteOffset": 38880,
      "byteLength": 9720,
      "target": 34962
    },
    {
      "buffer": 0,
      "byteOffset": 48600,
      "byteLength": 4344,
      "target": 34963
    }
  ],
  "materials": [
    {
      "name": "PalletPlywood_Dielectric",
      "pbrMetallicRoughness": {
        "baseColorTexture": {
          "index": 0
        },
        "metallicRoughnessTexture": {
          "index": 1
        }
      },
      "alphaMode": "MASK",
      "occlusionTexture": {
        "index": 1
      },
      "normalTexture": {
        "index": 2
      }
    }
  ],
  "meshes": [
    {
      "name": "PalletPlywoodNew_GameReady",
      "primitives": [
        {
          "mode": 4,
          "material": 0,
          "indices": 4,
          "attributes": {
            "POSITION": 0,
            "NORMAL": 1,
            "TEXCOORD_0": 2,
            "TEXCOORD_1": 3
          }
        }
      ]
    }
  ],
  "nodes": [
    {
      "children": [
        1
      ]
    },
    {
      "name": "node",
      "children": [
        2
      ]
    },
    {
      "name": "PalletPlywoodNew_GameReady",
      "mesh": 0
    }
  ],
  "scenes": [
    {
      "nodes": [
        0
      ]
    }
  ],
  "scene": 0,
  "samplers": [
    {
      "magFilter": 9729,
      "minFilter": 9987,
      "wrapS": 10497,
      "wrapT": 10497
    }
  ],
  "images": [
    {
      "uri": "textures/baseColor.png"
    },
    {
      "uri": "textures/occlusionRoughnessMetallic.jpg"
    },
    {
      "uri": "textures/normal.png"
    }
  ],
  "textures": [
    {
      "sampler": 0,
      "source": 0
    },
    {
      "sampler": 0,
      "source": 1
    },
    {
      "sampler": 0,
      "source": 2
    }
  ]
}